# xmcd
#
# Track frame offsets: 
#        150
#        16525
#        27274
#        47547
#        65055
#        77672
#        97529
#        110591
#        125701
#        142223
#        158089
#        170438
#        190378
#        212270
#        225645
#        244145
#        257953
#        276983
#        292659
#        308726
#
# Disc length: 4357 seconds
#
# Revision: 0
# Processed by: cddbd v1.5.1PL0 Copyright (c) Steve Scherf et al.
# Submitted via: ExactAudioCopy v0.95a3
#
DISCID=0f110314
DTITLE=Shania Twain - Greatest Hits 2000
DYEAR=2000
DGENRE=Country
TTITLE0=That Don't Impress Me Much
TTITLE1=Dance With The One That Brought You
TTITLE2=(If You Not In It For Love) I'm Outta Here?
TTITLE3=Man! I Feel Like A Woman!
TTITLE4=You Lay A Whole Lot Of Love On Me
TTITLE5=Whose Bed Have Your Boots Been Under?
TTITLE6=Come On Over
TTITLE7=Forget Me
TTITLE8=If It Don't Take Two
TTITLE9=You're Still The One
TTITLE10=God Ain't Gonna Getcha For That
TTITLE11=You Win My Love
TTITLE12=From This Moment On
TTITLE13=What Made You Say That
TTITLE14=I Won't Leave You Lonely
TTITLE15=No One Needs To Know
TTITLE16=If You Wanna Touch Her, Ask!
TTITLE17=Crime Of The Century
TTITLE18=Don't Be Stupid (You Know I Love You)
TTITLE19=That Don't Impress Me Much (dance mix edit)
EXTD=
EXTT0=
EXTT1=
EXTT2=
EXTT3=
EXTT4=
EXTT5=
EXTT6=
EXTT7=
EXTT8=
EXTT9=
EXTT10=
EXTT11=
EXTT12=
EXTT13=
EXTT14=
EXTT15=
EXTT16=
EXTT17=
EXTT18=
EXTT19=
PLAYORDER=
